<?xml version="1.0" encoding="UTF-8" standalone="no"?>
<svg
   xmlns:dc="http://purl.org/dc/elements/1.1/"
   xmlns:cc="http://creativecommons.org/ns#"
   xmlns:rdf="http://www.w3.org/1999/02/22-rdf-syntax-ns#"
   xmlns:svg="http://www.w3.org/2000/svg"
   xmlns="http://www.w3.org/2000/svg"
   width="432"
   height="432"
   viewBox="0 0 432 432"
   version="1.1"
   id="svg8">
  <defs
     id="defs2" />
  <metadata
     id="metadata5">
    <rdf:RDF>
      <cc:Work
         rdf:about="">
        <dc:format>image/svg+xml</dc:format>
        <dc:type
           rdf:resource="http://purl.org/dc/dcmitype/StillImage" />
        <dc:title></dc:title>
      </cc:Work>
    </rdf:RDF>
  </metadata>
  <g
     transform="matrix(0.53333333,0,0,0.53333318,62.4,62.400079)"
     id="g1870">
    <path
       id="path873"
       style="fill:#000000;fill-opacity:1;stroke-width:18.7718;stroke-linecap:round;paint-order:stroke fill markers"
       d="M 287.49219,48 A 240,240 0 0 0 48,288 240,240 0 0 0 288,528 240,240 0 0 0 528,288 240,240 0 0 0 288,48 240,240 0 0 0 287.49219,48 Z M 288,96 A 192,192 0 0 1 480,288 192,192 0 0 1 288,480 192,192 0 0 1 96,288 192,192 0 0 1 288,96 Z" />
    <g
       id="g1724"
       transform="matrix(1.458879,0,0,1.1799561,-134.28951,-20.212119)">
      <rect
         ry="6.700768"
         y="180.26115"
         x="223.92204"
         height="161.89056"
         width="17.539585"
         id="rect1705"
         style="fill:#000000;fill-opacity:1;stroke-width:3.30374;stroke-linecap:round;paint-order:stroke fill markers" />
      <rect
         style="fill:#000000;fill-opacity:1;stroke-width:3.30374;stroke-linecap:round;paint-order:stroke fill markers"
         id="rect1712"
         width="17.539585"
         height="161.89056"
         x="337.46164"
         y="180.26115"
         ry="6.700768" />
      <rect
         style="fill:#000000;fill-opacity:1;stroke-width:3.30374;stroke-linecap:round;paint-order:stroke fill markers"
         id="rect1714"
         width="17.539585"
         height="161.89056"
         x="223.92204"
         y="180.26115"
         ry="6.700768" />
      <rect
         transform="matrix(0.94993385,-0.31245109,0.59491481,0.80378876,0,0)"
         ry="8.2571745"
         y="256.85907"
         x="70.905556"
         height="199.49335"
         width="20.961487"
         id="rect1718"
         style="fill:#000000;fill-opacity:1;stroke-width:4.00923;stroke-linecap:round;paint-order:stroke fill markers" />
    </g>
  </g>
</svg>
